# xmcd
#
# Track frame offsets:
# 150
# 22399
# 45854
# 64890
# 83919
# 108635
# 135354
# 155637
# 181700
# 203743
# 229503
# 248517
# 267643
# 290397
# 304208
#
# Disc length: 4315 seconds
#
#
# Revision: 0
# Processed by: cddbd v1.5.2PL0 Copyright (c) Steve Scherf et al.
# Submitted via: FreeRIP 2.944 
#
DISCID=cc10d90f
DTITLE=LAmour-Sackett02 - Far-Blue-Mt7
DYEAR=1978
DGENRE=Booty Bass
TTITLE0=701
TTITLE1=702
TTITLE2=703
TTITLE3=704
TTITLE4=705
TTITLE5=706
TTITLE6=707
TTITLE7=708
TTITLE8=709
TTITLE9=710
TTITLE10=711
TTITLE11=712
TTITLE12=713
TTITLE13=714
TTITLE14=715
EXTD=To the Far Blue Mountains by Louis A'mour\nread by John Curless - Sacketts 1976\nRandom House Inc 8 CDs -  western=booty
EXTT0=
EXTT1=
EXTT2=
EXTT3=
EXTT4=
EXTT5=
EXTT6=
EXTT7=
EXTT8=
EXTT9=
EXTT10=
EXTT11=
EXTT12=
EXTT13=
EXTT14=
PLAYORDER=
